# Blender v3.6.8 OBJ File: 'Ger1.blend'
# www.blender.org
mtllib sm_bemdad1.mtl
o Plane
v -0.512826 -0.308624 -0.000018
v 0.511529 -0.308889 -0.001419
v -1.232920 2.905360 -11.846413
v 1.188862 2.875216 -10.973553
v -1.495544 3.485870 -11.104784
v -1.496675 4.419913 -10.214941
v -1.347209 5.521329 -9.122253
v -1.231904 6.804353 -7.416017
v -1.269343 7.628775 -5.448787
v -1.277256 7.678927 -3.927428
v -1.358545 7.294272 -2.584809
v -1.379803 6.914628 -1.729919
v -1.661805 6.695038 -0.790587
v -2.436913 6.421932 0.173635
v -2.522434 5.723124 0.346825
v -2.114781 5.093885 0.233347
v -1.445325 4.397518 0.001836
v -0.936096 3.692014 -0.102741
v -0.677992 2.988648 -0.010762
v -0.580083 2.158651 0.118219
v -0.593492 1.337204 0.078251
v -0.614998 0.378334 -0.001012
v 1.030086 0.377270 -0.006500
v 1.855922 1.347458 -0.011340
v 2.236518 2.147859 -0.050811
v 1.952933 2.864578 -0.224536
v 1.438423 3.466402 -0.488209
v 0.902722 3.988091 -0.674733
v 0.541011 4.425838 -0.811774
v 0.336400 4.862458 -0.993881
v 0.111970 5.260261 -1.467375
v 0.425620 5.456776 -2.375442
v 0.618302 5.653205 -3.137605
v 0.574193 5.889629 -4.059494
v 0.791507 5.909468 -5.091210
v 0.845982 5.551147 -6.117197
v 1.000830 4.950718 -7.265803
v 0.895048 4.444825 -8.431174
v 1.012179 4.068614 -9.235503
v 0.962781 3.338588 -10.217732
vt 0.000000 0.947368
vt 1.000000 0.947368
vt 1.000000 1.000000
vt 0.000000 1.000000
vt 0.000000 0.000000
vt 1.000000 0.000000
vt 1.000000 0.052632
vt 0.000000 0.052632
vt 1.000000 0.105263
vt 0.000000 0.105263
vt 1.000000 0.157895
vt 0.000000 0.157895
vt 1.000000 0.210526
vt 0.000000 0.210526
vt 1.000000 0.263158
vt 0.000000 0.263158
vt 1.000000 0.315789
vt 0.000000 0.315789
vt 1.000000 0.368421
vt 0.000000 0.368421
vt 1.000000 0.421053
vt 0.000000 0.421053
vt 1.000000 0.473684
vt 0.000000 0.473684
vt 1.000000 0.526316
vt 0.000000 0.526316
vt 1.000000 0.578947
vt 0.000000 0.578947
vt 1.000000 0.631579
vt 0.000000 0.631579
vt 1.000000 0.684211
vt 0.000000 0.684211
vt 1.000000 0.736842
vt 0.000000 0.736842
vt 1.000000 0.789474
vt 0.000000 0.789474
vt 1.000000 0.842105
vt 0.000000 0.842105
vt 1.000000 0.894737
vt 0.000000 0.894737
vn 0.2608 0.7772 -0.5727
vn 0.2677 0.7680 -0.5818
vn 0.2144 0.8327 -0.5105
vn 0.0026 0.0036 1.0000
vn 0.0173 -0.0336 0.9993
vn 0.0134 -0.0237 0.9996
vn 0.0414 -0.0232 0.9989
vn 0.0360 -0.0307 0.9989
vn 0.0622 0.1031 0.9927
vn 0.0621 0.1025 0.9928
vn 0.0932 0.2489 0.9640
vn 0.1095 0.2822 0.9531
vn 0.1640 0.3184 0.9337
vn 0.2091 0.2929 0.9330
vn 0.2779 0.2676 0.9226
vn 0.3363 0.2597 0.9052
vn 0.3923 0.2747 0.8779
vn 0.4333 0.3016 0.8493
vn 0.4960 0.3813 0.7802
vn 0.5253 0.4265 0.7363
vn 0.6119 0.5249 0.5917
vn 0.5870 0.5027 0.6346
vn 0.6604 0.6375 0.3967
vn 0.6548 0.5893 0.4732
vn 0.6607 0.6980 0.2762
vn 0.6614 0.6839 0.3079
vn 0.6779 0.7025 0.2169
vn 0.6701 0.7070 0.2260
vn 0.6677 0.7444 -0.0070
vn 0.6805 0.7276 0.0869
vn 0.6328 0.7386 -0.2325
vn 0.6408 0.7473 -0.1758
vn 0.5786 0.7105 -0.4006
vn 0.5918 0.7160 -0.3702
vn 0.4816 0.7061 -0.5191
vn 0.4799 0.7064 -0.5203
vn 0.3691 0.7128 -0.5964
vn 0.3553 0.7116 -0.6061
usemtl None
s 1
f 5/1/1 40/2/2 4/3/3 3/4/3
f 1/5/4 2/6/4 23/7/5 22/8/6
f 22/8/6 23/7/5 24/9/7 21/10/8
f 21/10/8 24/9/7 25/11/9 20/12/10
f 20/12/10 25/11/9 26/13/11 19/14/12
f 19/14/12 26/13/11 27/15/13 18/16/14
f 18/16/14 27/15/13 28/17/15 17/18/16
f 17/18/16 28/17/15 29/19/17 16/20/18
f 16/20/18 29/19/17 30/21/19 15/22/20
f 15/22/20 30/21/19 31/23/21 14/24/22
f 14/24/22 31/23/21 32/25/23 13/26/24
f 13/26/24 32/25/23 33/27/25 12/28/26
f 12/28/26 33/27/25 34/29/27 11/30/28
f 11/30/28 34/29/27 35/31/29 10/32/30
f 10/32/30 35/31/29 36/33/31 9/34/32
f 9/34/32 36/33/31 37/35/33 8/36/34
f 8/36/34 37/35/33 38/37/35 7/38/36
f 7/38/36 38/37/35 39/39/37 6/40/38
f 6/40/38 39/39/37 40/2/2 5/1/1
