# Blender 3.6.8
# www.blender.org
mtllib sm_chunks.mtl
o Plane
v -1.179505 -0.282790 -0.279469
v 0.946463 -0.407830 -0.000143
v -1.179505 0.297399 -0.279469
v 0.946463 0.172358 -0.000143
v -0.804391 -0.490164 -0.001716
v -0.272626 -0.637679 0.261721
v 0.586145 -0.533124 0.230601
v 0.586145 0.047065 0.230601
v -0.272626 -0.057491 0.261721
v -0.804391 0.090024 -0.001716
v 0.231729 -0.613971 0.365141
v 0.231729 -0.033782 0.365141
vn 0.4345 -0.0000 0.9007
vn 0.5393 -0.0000 0.8421
vn 0.4637 -0.0000 0.8860
vn -0.5951 -0.0000 0.8037
vn -0.5045 -0.0000 0.8634
vn -0.5366 -0.0000 0.8438
vn -0.3166 -0.0000 0.9486
vn -0.3321 -0.0000 0.9432
vn 0.0553 -0.0000 0.9985
vn 0.1026 -0.0000 0.9947
vt 0.000000 0.250000
vt 0.000000 0.000000
vt 1.000000 0.000000
vt 1.000000 0.250000
vt 0.000000 1.000000
vt 0.000000 0.750000
vt 1.000000 0.750000
vt 1.000000 1.000000
vt 0.000000 0.500000
vt 1.000000 0.500000
vt 0.000000 0.375000
vt 1.000000 0.375000
s 1
f 7/1/1 2/2/2 4/3/2 8/4/3
f 1/5/4 5/6/5 10/7/6 3/8/4
f 5/6/5 6/9/7 9/10/8 10/7/6
f 11/11/9 7/1/1 8/4/3 12/12/10
f 6/9/7 11/11/9 12/12/10 9/10/8
