# Blender v3.6.8 OBJ File: ''
# www.blender.org
mtllib thunderB1.mtl
o Plane
v -0.560559 9.611372 -0.416956
v 0.978865 9.802486 0.256710
v 0.691211 10.798906 0.036443
v -0.946201 10.597307 -0.178124
v -0.356512 -0.485416 -0.015051
v 0.066624 -0.466005 -0.010450
v 0.519753 0.453253 -0.128775
v -0.524788 0.405577 0.099608
v 0.479914 1.350343 -0.317476
v -0.749019 1.300193 0.438992
v 0.384163 2.288534 -0.381678
v -0.824729 2.245257 0.615043
v 0.350330 3.177075 -0.207874
v -1.065835 3.148180 0.679686
v 0.117242 3.978647 0.057206
v -1.700723 3.964607 0.653911
v -0.121606 4.927062 0.124472
v -2.010828 4.877360 0.300398
v 0.168856 6.134562 0.042215
v -1.613421 6.082644 -0.050198
v 1.022794 7.405792 0.164106
v -0.831674 7.432992 -0.466861
v 1.387069 8.580170 0.445065
v -0.304985 8.561818 -0.452998
v -1.470924 0.000000 1.470924
v 1.470924 0.000000 1.470924
v 1.470924 -0.000000 -1.470924
v -1.470924 -0.000000 -1.470924
v -1.288798 -0.035752 0.000000
v -1.288798 2.541844 0.000000
v 1.288798 -0.035752 -0.000000
v 1.288798 2.541845 -0.000000
vt 0.000000 0.909091
vt 1.000000 0.909091
vt 1.000000 1.000000
vt 0.000000 1.000000
vt 0.000000 0.000000
vt 1.000000 0.000000
vt 1.000000 0.090909
vt 0.000000 0.090909
vt 1.000000 0.181818
vt 0.000000 0.181818
vt 1.000000 0.272727
vt 0.000000 0.272727
vt 1.000000 0.363636
vt 0.000000 0.363636
vt 1.000000 0.454545
vt 0.000000 0.454545
vt 1.000000 0.545455
vt 0.000000 0.545455
vt 1.000000 0.636364
vt 0.000000 0.636364
vt 1.000000 0.727273
vt 0.000000 0.727273
vt 1.000000 0.818182
vt 0.000000 0.818182
vt 0.000000 0.000000
vt 1.000000 0.000000
vt 1.000000 1.000000
vt 0.000000 1.000000
vt 0.000000 1.000000
vt 0.000000 0.000000
vt 1.000000 0.000000
vt 1.000000 1.000000
vn -0.3402 -0.0827 0.9367
vn -0.3595 -0.0794 0.9298
vn -0.2570 -0.0963 0.9616
vn 0.1517 -0.0219 0.9882
vn 0.3031 -0.0200 0.9527
vn 0.2933 -0.0201 0.9558
vn 0.4965 -0.0065 0.8680
vn 0.5090 -0.0049 0.8607
vn 0.5836 -0.0063 0.8120
vn 0.5836 -0.0082 0.8120
vn 0.5166 0.0259 0.8559
vn 0.4831 0.0470 0.8743
vn 0.3280 0.1372 0.9347
vn 0.2760 0.1649 0.9469
vn 0.1064 0.1891 0.9762
vn 0.1113 0.1900 0.9755
vn -0.1139 0.2074 0.9716
vn -0.0575 0.1925 0.9796
vn -0.3284 0.1022 0.9390
vn -0.2707 0.1565 0.9499
vn -0.4152 -0.0161 0.9096
vn -0.4138 -0.0125 0.9103
vn 0.0000 1.0000 -0.0000
vn -0.0000 0.0000 -1.0000
usemtl Material.001
s 1
f 1/1/1 2/2/2 3/3/3 4/4/3
f 5/5/4 6/6/4 7/7/5 8/8/6
f 8/8/6 7/7/5 9/9/7 10/10/8
f 10/10/8 9/9/7 11/11/9 12/12/10
f 12/12/10 11/11/9 13/13/11 14/14/12
f 14/14/12 13/13/11 15/15/13 16/16/14
f 16/16/14 15/15/13 17/17/15 18/18/16
f 18/18/16 17/17/15 19/19/17 20/20/18
f 20/20/18 19/19/17 21/21/19 22/22/20
f 22/22/20 21/21/19 23/23/21 24/24/22
f 24/24/22 23/23/21 2/2/2 1/1/1
usemtl Material.003
f 25/25/23 26/26/23 27/27/23 28/28/23
usemtl Material.002
s off
f 32/29/24 31/30/24 29/31/24 30/32/24
