# Blender 3.6.8
# www.blender.org
mtllib thunder_mesh.mtl
o Plane
v -0.560559 9.611372 -0.416956
v 0.978865 9.802486 0.256710
v 0.691211 10.798906 0.036443
v -0.946201 10.597307 -0.178124
v 0.113980 -0.485416 -0.015051
v -0.106789 -0.466005 -0.010450
v 0.519753 0.453253 -0.128775
v -0.524788 0.405577 0.099608
v 0.479914 1.350343 -0.317476
v -0.749019 1.300193 0.438992
v 0.384163 2.288534 -0.381678
v -0.824729 2.245257 0.615043
v 0.350330 3.177075 -0.207874
v -1.065835 3.148180 0.679686
v 0.117242 3.978647 0.057206
v -1.700723 3.964607 0.653911
v -0.121606 4.927062 0.124472
v -2.010828 4.877360 0.300398
v 0.168856 6.134562 0.042215
v -1.613421 6.082644 -0.050198
v 1.022794 7.405792 0.164106
v -0.831674 7.432992 -0.466861
v 1.387069 8.580170 0.445065
v -0.304985 8.561818 -0.452998
v -1.470924 0.000000 1.470924
v 1.470924 0.000000 1.470924
v 1.470924 -0.000000 -1.470924
v -1.470924 -0.000000 -1.470924
v 0.237337 1.005272 -1.193171
v -0.000000 1.005272 -1.216546
v 0.465552 1.005272 -1.123943
v 0.675877 1.005272 -1.011521
v 0.860229 1.005272 -0.860229
v 1.011521 1.005273 -0.675877
v 1.123943 1.005273 -0.465552
v 1.193171 1.005273 -0.237337
v 1.216546 1.005273 -0.000000
v 1.193171 1.005273 0.237337
v 1.123943 1.005273 0.465552
v 1.011521 1.005273 0.675877
v 0.860229 1.005273 0.860228
v 0.675877 1.005273 1.011521
v 0.465552 1.005273 1.123943
v 0.237337 1.005273 1.193171
v -0.000000 1.005273 1.216546
v -0.237337 1.005273 1.193171
v -0.465552 1.005273 1.123943
v -0.675877 1.005273 1.011521
v -0.860229 1.005273 0.860228
v -1.011521 1.005273 0.675877
v -1.123943 1.005273 0.465552
v -1.193171 1.005273 0.237337
v -1.216546 1.005273 -0.000000
v -1.193171 1.005273 -0.237337
v -1.123943 1.005273 -0.465552
v -1.011521 1.005273 -0.675877
v -0.860229 1.005272 -0.860229
v -0.675877 1.005272 -1.011521
v -0.465552 1.005272 -1.123943
v -0.237337 1.005272 -1.193171
v -0.036799 0.014900 -0.185001
v 0.000000 0.014900 -0.188625
v 0.312299 0.510086 -0.753956
v 0.753956 0.510087 -0.312299
v -0.072184 0.014900 -0.174267
v 0.753956 0.510087 0.312299
v -0.104794 0.014900 -0.156836
v 0.678542 0.510087 0.453387
v -0.133378 0.014900 -0.133378
v 0.312299 0.510087 0.753956
v -0.156836 0.014900 -0.104794
v 0.159209 0.510087 0.800395
v -0.174267 0.014900 -0.072184
v -0.312299 0.510087 0.753956
v -0.185001 0.014901 -0.036799
v -0.453387 0.510087 0.678542
v -0.188625 0.014901 -0.000000
v -0.753956 0.510087 0.312299
v -0.185001 0.014901 0.036799
v -0.800395 0.510087 0.159209
v -0.174267 0.014901 0.072184
v -0.753956 0.510087 -0.312299
v -0.156836 0.014901 0.104794
v -0.678542 0.510086 -0.453387
v -0.133378 0.014901 0.133378
v -0.312299 0.510086 -0.753956
v -0.104794 0.014901 0.156836
v -0.159209 0.510086 -0.800395
v -0.072184 0.014901 0.174267
v 0.159209 0.510086 -0.800395
v -0.036799 0.014901 0.185001
v -0.453387 0.510086 -0.678542
v 0.000000 0.014901 0.188625
v -0.800395 0.510087 -0.159209
v 0.036799 0.014901 0.185001
v -0.678542 0.510087 0.453387
v 0.072184 0.014901 0.174267
v -0.159209 0.510087 0.800395
v 0.104794 0.014901 0.156836
v 0.453387 0.510087 0.678542
v 0.133378 0.014901 0.133378
v -0.000000 0.510086 -0.816076
v 0.156836 0.014901 0.104794
v 0.800395 0.510087 0.159209
v 0.174267 0.014901 0.072184
v 0.800395 0.510087 -0.159209
v 0.185001 0.014901 0.036799
v 0.678542 0.510086 -0.453387
v 0.188625 0.014901 -0.000000
v 0.453387 0.510086 -0.678542
v 0.185001 0.014901 -0.036799
v 0.577053 0.510086 -0.577053
v 0.174267 0.014900 -0.072184
v 0.816075 0.510087 -0.000000
v 0.156836 0.014900 -0.104794
v 0.577053 0.510087 0.577053
v 0.133378 0.014900 -0.133378
v -0.000000 0.510087 0.816075
v 0.104794 0.014900 -0.156836
v -0.577053 0.510087 0.577053
v 0.072184 0.014900 -0.174267
v -0.816075 0.510087 -0.000000
v 0.036799 0.014900 -0.185001
v -0.577053 0.510086 -0.577053
vn -0.3402 -0.0827 0.9367
vn -0.3595 -0.0794 0.9298
vn -0.2570 -0.0963 0.9616
vn 0.2619 0.0037 0.9651
vn 0.3495 -0.0104 0.9369
vn 0.3512 -0.0107 0.9362
vn 0.4965 -0.0065 0.8680
vn 0.5090 -0.0049 0.8607
vn 0.5836 -0.0063 0.8120
vn 0.5836 -0.0082 0.8120
vn 0.5166 0.0259 0.8559
vn 0.4831 0.0470 0.8743
vn 0.3280 0.1372 0.9347
vn 0.2760 0.1649 0.9469
vn 0.1064 0.1891 0.9762
vn 0.1113 0.1900 0.9755
vn -0.1139 0.2074 0.9716
vn -0.0575 0.1925 0.9796
vn -0.3284 0.1022 0.9390
vn -0.2707 0.1565 0.9499
vn -0.4152 -0.0161 0.9096
vn -0.4138 -0.0125 0.9103
vn -0.0000 1.0000 -0.0000
vn -0.6076 0.7850 -0.1209
vn -0.6928 0.7079 -0.1378
vn -0.7064 0.7079 -0.0000
vn -0.6195 0.7850 -0.0000
vn -0.2976 0.6288 0.7184
vn -0.1517 0.6288 0.7626
vn -0.1378 0.7079 0.6928
vn -0.2703 0.7079 0.6526
vn 0.7775 0.6288 -0.0000
vn 0.7626 0.6288 -0.1517
vn 0.6928 0.7079 -0.1378
vn 0.7064 0.7079 -0.0000
vn 0.4320 0.6288 -0.6465
vn 0.2976 0.6288 -0.7184
vn 0.2703 0.7079 -0.6526
vn 0.3924 0.7079 -0.5873
vn -0.7184 0.6288 -0.2976
vn -0.7626 0.6288 -0.1517
vn -0.6526 0.7079 -0.2703
vn -0.3442 0.7850 0.5151
vn -0.3924 0.7079 0.5873
vn -0.2371 0.7850 0.5724
vn 0.2976 0.6288 0.7184
vn 0.4320 0.6288 0.6465
vn 0.3924 0.7079 0.5873
vn 0.2703 0.7079 0.6526
vn 0.5498 0.6288 -0.5498
vn 0.4995 0.7079 -0.4995
vn -0.6465 0.6288 -0.4320
vn -0.5873 0.7079 -0.3924
vn -0.5498 0.6288 0.5498
vn -0.4320 0.6288 0.6465
vn -0.4995 0.7079 0.4995
vn 0.6465 0.6288 0.4320
vn 0.7184 0.6288 0.2976
vn 0.6526 0.7079 0.2703
vn 0.5873 0.7079 0.3924
vn 0.5151 0.7850 -0.3442
vn 0.5873 0.7079 -0.3924
vn 0.4381 0.7850 -0.4381
vn -0.5498 0.6288 -0.5498
vn -0.4995 0.7079 -0.4995
vn 0.7184 0.6288 -0.2976
vn 0.6526 0.7079 -0.2703
vn -0.5151 0.7850 0.3442
vn -0.5873 0.7079 0.3924
vn -0.4381 0.7850 0.4381
vn 0.6465 0.6288 -0.4320
vn -0.3442 0.7850 -0.5151
vn -0.3924 0.7079 -0.5873
vn -0.4381 0.7850 -0.4381
vn -0.7184 0.6288 0.2976
vn -0.6465 0.6288 0.4320
vn -0.6526 0.7079 0.2703
vn 0.5498 0.6288 0.5498
vn 0.4995 0.7079 0.4995
vn 0.7626 0.6288 0.1517
vn 0.6928 0.7079 0.1378
vn -0.2976 0.6288 -0.7184
vn -0.4320 0.6288 -0.6465
vn -0.2703 0.7079 -0.6526
vn -0.6076 0.7850 0.1209
vn -0.6928 0.7079 0.1378
vn -0.5724 0.7850 0.2371
vn 0.3442 0.7850 0.5151
vn 0.4381 0.7850 0.4381
vn 0.6076 0.7850 0.1209
vn 0.6195 0.7850 -0.0000
vn -0.0000 0.6288 -0.7775
vn -0.1517 0.6288 -0.7626
vn -0.1378 0.7079 -0.6928
vn -0.0000 0.7079 -0.7064
vn -0.7775 0.6288 -0.0000
vn -0.7626 0.6288 0.1517
vn 0.1517 0.6288 0.7626
vn 0.1378 0.7079 0.6928
vn -0.0000 0.6288 0.7775
vn -0.0000 0.7079 0.7064
vn 0.1209 0.7850 -0.6076
vn 0.1378 0.7079 -0.6928
vn -0.0000 0.7850 -0.6195
vn 0.1517 0.6288 -0.7626
vn 0.1209 0.7850 0.6076
vn -0.0000 0.7850 0.6195
vn 0.5724 0.7850 0.2371
vn 0.5724 0.7850 -0.2371
vn 0.3442 0.7850 -0.5151
vn 0.2371 0.7850 -0.5724
vn -0.1209 0.7850 -0.6076
vn -0.2371 0.7850 -0.5724
vn -0.5151 0.7850 -0.3442
vn -0.5724 0.7850 -0.2371
vn 0.6076 0.7850 -0.1209
vn -0.1209 0.7850 0.6076
vn 0.2371 0.7850 0.5724
vn 0.5151 0.7850 0.3442
vt 0.000000 0.909091
vt 1.000000 0.909091
vt 1.000000 1.000000
vt 0.000000 1.000000
vt 0.000000 0.000000
vt 1.000000 0.000000
vt 1.000000 0.090909
vt 0.000000 0.090909
vt 1.000000 0.181818
vt 0.000000 0.181818
vt 1.000000 0.272727
vt 0.000000 0.272727
vt 1.000000 0.363636
vt 0.000000 0.363636
vt 1.000000 0.454545
vt 0.000000 0.454545
vt 1.000000 0.545455
vt 0.000000 0.545455
vt 1.000000 0.636364
vt 0.000000 0.636364
vt 1.000000 0.727273
vt 0.000000 0.727273
vt 1.000000 0.818182
vt 0.000000 0.818182
vt 0.718750 0.000000
vt 0.718750 0.500000
vt 0.750000 0.500000
vt 0.750000 0.000000
vt 0.937500 1.000000
vt 0.968750 1.000000
vt 0.968750 0.500000
vt 0.937500 0.500000
vt 0.250000 1.000000
vt 0.281250 1.000000
vt 0.281250 0.500000
vt 0.250000 0.500000
vt 0.406250 1.000000
vt 0.437500 1.000000
vt 0.437500 0.500000
vt 0.406250 0.500000
vt 0.687500 1.000000
vt 0.718750 1.000000
vt 0.687500 0.500000
vt 0.906250 0.000000
vt 0.906250 0.500000
vt 0.937500 0.000000
vt 0.062500 1.000000
vt 0.093750 1.000000
vt 0.093750 0.500000
vt 0.062500 0.500000
vt 0.375000 1.000000
vt 0.375000 0.500000
vt 0.656250 1.000000
vt 0.656250 0.500000
vt 0.875000 1.000000
vt 0.906250 1.000000
vt 0.875000 0.500000
vt 0.156250 1.000000
vt 0.187500 1.000000
vt 0.187500 0.500000
vt 0.156250 0.500000
vt 0.343750 0.000000
vt 0.343750 0.500000
vt 0.375000 0.000000
vt 0.625000 1.000000
vt 0.625000 0.500000
vt 0.312500 1.000000
vt 0.312500 0.500000
vt 0.843750 0.000000
vt 0.843750 0.500000
vt 0.875000 0.000000
vt 0.343750 1.000000
vt 0.593750 0.000000
vt 0.593750 0.500000
vt 0.625000 0.000000
vt 0.812500 1.000000
vt 0.843750 1.000000
vt 0.812500 0.500000
vt 0.125000 1.000000
vt 0.125000 0.500000
vt 0.218750 1.000000
vt 0.218750 0.500000
vt 0.562500 1.000000
vt 0.593750 1.000000
vt 0.562500 0.500000
vt 0.781250 0.000000
vt 0.781250 0.500000
vt 0.812500 0.000000
vt 0.093750 0.000000
vt 0.125000 0.000000
vt 0.218750 0.000000
vt 0.250000 0.000000
vt 0.500000 1.000000
vt 0.531250 1.000000
vt 0.531250 0.500000
vt 0.500000 0.500000
vt 0.750000 1.000000
vt 0.781250 1.000000
vt 0.031250 1.000000
vt 0.031250 0.500000
vt 0.000000 0.500000
vt 0.468750 0.000000
vt 0.468750 0.500000
vt 0.500000 0.000000
vt 0.468750 1.000000
vt 0.031250 0.000000
vt 0.187500 0.000000
vt 0.312500 0.000000
vt 0.406250 0.000000
vt 0.437500 0.000000
vt 0.531250 0.000000
vt 0.562500 0.000000
vt 0.656250 0.000000
vt 0.687500 0.000000
vt 0.281250 0.000000
vt 0.968750 0.000000
vt 0.062500 0.000000
vt 0.156250 0.000000
vt 1.000000 0.500000
s 1
usemtl Material.001
f 1/1/1 2/2/2 3/3/3 4/4/3
f 5/5/4 6/6/4 7/7/5 8/8/6
f 8/8/6 7/7/5 9/9/7 10/10/8
f 10/10/8 9/9/7 11/11/9 12/12/10
f 12/12/10 11/11/9 13/13/11 14/14/12
f 14/14/12 13/13/11 15/15/13 16/16/14
f 16/16/14 15/15/13 17/17/15 18/18/16
f 18/18/16 17/17/15 19/19/17 20/20/18
f 20/20/18 19/19/17 21/21/19 22/22/20
f 22/22/20 21/21/19 23/23/21 24/24/22
f 24/24/22 23/23/21 2/2/2 1/1/1
usemtl Material.003
f 25/5/23 26/6/23 27/3/23 28/4/23
usemtl Material.002
f 107/25/24 104/26/25 114/27/26 109/28/27
f 31/29/28 29/30/29 90/31/30 63/32/31
f 53/33/32 52/34/33 80/35/34 122/36/35
f 48/37/36 47/38/37 74/39/38 76/40/39
f 39/41/40 38/42/41 104/26/25 66/43/42
f 119/44/43 110/45/44 63/32/31 121/46/45
f 59/47/46 58/48/47 92/49/48 86/50/49
f 49/51/50 48/37/36 76/40/39 120/52/51
f 40/53/52 39/41/40 66/43/42 68/54/53
f 33/55/54 32/56/55 110/45/44 112/57/56
f 56/58/57 55/59/58 82/60/59 84/61/60
f 83/62/61 96/63/62 120/52/51 85/64/63
f 41/65/64 40/53/52 68/54/53 116/66/65
f 52/34/33 51/67/66 78/68/67 80/35/34
f 115/69/68 108/70/69 112/57/56 117/71/70
f 51/67/66 50/72/71 96/63/62 78/68/67
f 99/73/72 100/74/73 116/66/65 101/75/74
f 35/76/75 34/77/76 108/70/69 64/78/77
f 57/79/78 56/58/57 84/61/60 124/80/79
f 55/59/58 54/81/80 94/82/81 82/60/59
f 43/83/82 42/84/83 100/74/73 70/85/84
f 111/86/85 106/87/86 64/78/77 113/88/87
f 67/89/88 92/49/48 124/80/79 69/90/89
f 75/91/90 94/82/81 122/36/35 77/92/91
f 45/93/92 44/94/93 72/95/94 118/96/95
f 37/97/96 36/98/97 106/87/86 114/27/26
f 60/99/98 59/47/46 86/50/49 88/100/99
f 30/4/100 60/99/98 88/100/99 102/101/101
f 91/102/102 98/103/103 118/96/95 93/104/104
f 47/38/37 46/105/105 98/103/103 74/39/38
f 102/101/101 88/100/99 61/106/106 62/5/107
f 94/82/81 54/81/80 53/33/32 122/36/35
f 82/60/59 94/82/81 75/91/90 73/107/108
f 78/68/67 96/63/62 83/62/61 81/108/109
f 96/63/62 50/72/71 49/51/50 120/52/51
f 120/52/51 76/40/39 87/109/110 85/64/63
f 76/40/39 74/39/38 89/110/111 87/109/110
f 74/39/38 98/103/103 91/102/102 89/110/111
f 98/103/103 46/105/105 45/93/92 118/96/95
f 118/96/95 72/95/94 95/111/112 93/104/104
f 72/95/94 70/85/84 97/112/113 95/111/112
f 70/85/84 100/74/73 99/73/72 97/112/113
f 100/74/73 42/84/83 41/65/64 116/66/65
f 116/66/65 68/54/53 103/113/114 101/75/74
f 68/54/53 66/43/42 105/114/115 103/113/114
f 66/43/42 104/26/25 107/25/24 105/114/115
f 104/26/25 38/42/41 37/97/96 114/27/26
f 114/27/26 106/87/86 111/86/85 109/28/27
f 106/87/86 36/98/97 35/76/75 64/78/77
f 64/78/77 108/70/69 115/69/68 113/88/87
f 80/35/34 78/68/67 81/108/109 79/115/116
f 112/57/56 110/45/44 119/44/43 117/71/70
f 110/45/44 32/56/55 31/29/28 63/32/31
f 63/32/31 90/31/30 123/116/117 121/46/45
f 88/100/99 86/50/49 65/117/118 61/106/106
f 92/49/48 58/48/47 57/79/78 124/80/79
f 124/80/79 84/61/60 71/118/119 69/90/89
f 108/70/69 34/77/76 33/55/54 112/57/56
f 84/61/60 82/60/59 73/107/108 71/118/119
f 86/50/49 92/49/48 67/89/88 65/117/118
f 122/36/35 80/35/34 79/115/116 77/92/91
f 44/94/93 43/83/82 70/85/84 72/95/94
f 29/30/29 30/3/100 102/119/101 90/31/30
f 90/31/30 102/119/101 62/6/107 123/116/117
