# Blender 3.6.8
# www.blender.org
mtllib sm_thunder.mtl
o Plane
v -0.512810 -0.308620 0.000000
v 0.512810 -0.308620 0.000000
v -0.867730 15.516051 0.525978
v 1.320931 15.579662 -0.828104
v -0.849217 14.684874 0.509559
v -0.660748 13.912754 0.369251
v -0.481321 13.167092 0.196217
v -0.549573 12.176981 0.102788
v -0.919834 11.179185 0.307199
v -1.208222 10.419526 0.507891
v -1.323912 9.598731 0.553201
v -1.347763 8.925556 0.607937
v -1.614635 8.181265 0.802013
v -2.269711 7.192578 0.929990
v -2.404804 6.190283 0.645969
v -2.067883 5.431827 0.361255
v -1.492347 4.702333 0.147888
v -1.003468 3.899733 0.048529
v -0.665499 3.054359 0.081674
v -0.570902 2.162857 0.134439
v -0.590958 1.337735 0.081057
v -0.614084 0.378526 0.000000
v 1.035992 0.378526 0.000000
v 1.876501 1.358115 0.000045
v 2.308942 2.199440 -0.017150
v 2.123347 3.052141 -0.067982
v 1.708699 3.923698 -0.203441
v 1.234458 4.767531 -0.256320
v 0.890830 5.508901 -0.224125
v 0.699474 6.301388 -0.141841
v 0.532672 7.233035 -0.154943
v 0.925182 8.142181 -0.560708
v 1.108360 8.852566 -0.897410
v 0.972993 9.680285 -1.099274
v 1.112584 10.469200 -1.370919
v 1.222936 11.206178 -1.788780
v 1.446442 12.184366 -2.046300
v 1.421335 13.162618 -1.613828
v 1.549229 13.854326 -1.253267
v 1.340130 14.747787 -0.927872
vn 0.5521 -0.0675 0.8310
vn 0.5554 -0.0725 0.8284
vn 0.5380 -0.0466 0.8417
vn -0.0000 -0.0000 1.0000
vn 0.0142 -0.0361 0.9992
vn 0.0104 -0.0264 0.9996
vn 0.0368 -0.0386 0.9986
vn 0.0316 -0.0423 0.9986
vn 0.0487 0.0230 0.9985
vn 0.0483 0.0179 0.9987
vn 0.0600 0.0914 0.9940
vn 0.0635 0.1024 0.9927
vn 0.0884 0.0981 0.9912
vn 0.1019 0.0733 0.9921
vn 0.1386 0.0062 0.9903
vn 0.1557 -0.0252 0.9875
vn 0.1932 -0.0952 0.9765
vn 0.2074 -0.1223 0.9706
vn 0.2586 -0.1411 0.9556
vn 0.2683 -0.1382 0.9534
vn 0.3667 -0.0436 0.9293
vn 0.3472 -0.0699 0.9352
vn 0.4684 0.1127 0.8763
vn 0.4454 0.0734 0.8923
vn 0.5228 0.1713 0.8351
vn 0.5163 0.1685 0.8397
vn 0.5795 0.1139 0.8070
vn 0.5732 0.1262 0.8096
vn 0.6389 0.1045 0.7622
vn 0.6268 0.0883 0.7742
vn 0.6974 0.0154 0.7165
vn 0.6823 0.0637 0.7283
vn 0.7087 -0.1265 0.6941
vn 0.7096 -0.1183 0.6946
vn 0.6652 -0.2227 0.7127
vn 0.6549 -0.2297 0.7199
vn 0.6002 -0.1899 0.7770
vn 0.5903 -0.1571 0.7918
vt 0.000000 0.947368
vt 1.000000 0.947368
vt 1.000000 1.000000
vt 0.000000 1.000000
vt 0.000000 0.000000
vt 1.000000 0.000000
vt 1.000000 0.052632
vt 0.000000 0.052632
vt 1.000000 0.105263
vt 0.000000 0.105263
vt 1.000000 0.157895
vt 0.000000 0.157895
vt 1.000000 0.210526
vt 0.000000 0.210526
vt 1.000000 0.263158
vt 0.000000 0.263158
vt 1.000000 0.315789
vt 0.000000 0.315789
vt 1.000000 0.368421
vt 0.000000 0.368421
vt 1.000000 0.421053
vt 0.000000 0.421053
vt 1.000000 0.473684
vt 0.000000 0.473684
vt 1.000000 0.526316
vt 0.000000 0.526316
vt 1.000000 0.578947
vt 0.000000 0.578947
vt 1.000000 0.631579
vt 0.000000 0.631579
vt 1.000000 0.684211
vt 0.000000 0.684211
vt 1.000000 0.736842
vt 0.000000 0.736842
vt 1.000000 0.789474
vt 0.000000 0.789474
vt 1.000000 0.842105
vt 0.000000 0.842105
vt 1.000000 0.894737
vt 0.000000 0.894737
s 1
f 5/1/1 40/2/2 4/3/3 3/4/3
f 1/5/4 2/6/4 23/7/5 22/8/6
f 22/8/6 23/7/5 24/9/7 21/10/8
f 21/10/8 24/9/7 25/11/9 20/12/10
f 20/12/10 25/11/9 26/13/11 19/14/12
f 19/14/12 26/13/11 27/15/13 18/16/14
f 18/16/14 27/15/13 28/17/15 17/18/16
f 17/18/16 28/17/15 29/19/17 16/20/18
f 16/20/18 29/19/17 30/21/19 15/22/20
f 15/22/20 30/21/19 31/23/21 14/24/22
f 14/24/22 31/23/21 32/25/23 13/26/24
f 13/26/24 32/25/23 33/27/25 12/28/26
f 12/28/26 33/27/25 34/29/27 11/30/28
f 11/30/28 34/29/27 35/31/29 10/32/30
f 10/32/30 35/31/29 36/33/31 9/34/32
f 9/34/32 36/33/31 37/35/33 8/36/34
f 8/36/34 37/35/33 38/37/35 7/38/36
f 7/38/36 38/37/35 39/39/37 6/40/38
f 6/40/38 39/39/37 40/2/2 5/1/1
