# Blender 3.6.8
# www.blender.org
mtllib sm_wave.mtl
o Plane.002
v 0.097461 -0.011321 -0.752859
v 0.244336 -0.011321 -0.738393
v 0.097461 1.374568 -2.279672
v -0.049415 -0.011321 -0.738393
v -0.190646 -0.011321 -0.695551
v -0.347281 1.374568 -2.235868
v -0.774932 1.374568 -2.106142
v -1.169057 1.374568 -1.895478
v -1.514511 1.374568 -1.611971
v -0.320805 -0.011321 -0.625979
v -0.434891 -0.011321 -0.532351
v -0.528518 -0.011321 -0.418266
v -0.598090 -0.011321 -0.288107
v -1.798017 1.374568 -1.266518
v -2.008682 1.374568 -0.872393
v -2.138408 1.374568 -0.444742
v -2.182211 1.374568 0.000000
v -0.640932 -0.011321 -0.146875
v -0.655398 -0.011321 -0.000000
v -0.640932 -0.011321 0.146875
v -0.598090 -0.011321 0.288107
v -2.138408 1.374568 0.444742
v -2.008682 1.374568 0.872393
v -1.798017 1.374568 1.266518
v -1.514511 1.374568 1.611971
v -0.528518 -0.011321 0.418266
v -0.434891 -0.011321 0.532351
v -0.320805 -0.011321 0.625979
v -0.190646 -0.011321 0.695551
v -1.169057 1.374568 1.895478
v -0.774932 1.374568 2.106142
v -0.347281 1.374568 2.235868
v 0.097461 1.374568 2.279672
v -0.049415 -0.011321 0.738393
v 0.097461 -0.011321 0.752859
v 0.244336 -0.011321 0.738393
v 0.385567 -0.011321 0.695551
v 0.542202 1.374568 2.235868
v 0.969853 1.374568 2.106142
v 1.363978 1.374568 1.895478
v 1.709432 1.374568 1.611971
v 0.515726 -0.011321 0.625979
v 0.629812 -0.011321 0.532351
v 0.723440 -0.011321 0.418266
v 0.793011 -0.011321 0.288107
v 1.992938 1.374568 1.266518
v 2.203603 1.374568 0.872393
v 2.333329 1.374568 0.444742
v 2.377132 1.374568 0.000000
v 0.835853 -0.011321 0.146875
v 0.850319 -0.011321 -0.000000
v 0.835853 -0.011321 -0.146875
v 0.793011 -0.011321 -0.288107
v 2.333329 1.374568 -0.444742
v 2.203603 1.374568 -0.872393
v 1.992938 1.374568 -1.266518
v 1.709432 1.374568 -1.611971
v 0.723440 -0.011321 -0.418266
v 0.629812 -0.011321 -0.532351
v 0.515726 -0.011321 -0.625979
v 0.385567 -0.011321 -0.695551
v 1.363978 1.374568 -1.895478
v 0.969853 1.374568 -2.106142
v 0.542202 1.374568 -2.235868
vn -0.0000 0.7405 0.6721
vn -0.1311 0.7405 0.6592
vn 0.1311 0.7405 0.6592
vn 0.2572 0.7405 0.6209
vn 0.3734 0.7405 0.5588
vn 0.4753 0.7405 0.4753
vn 0.5588 0.7405 0.3734
vn 0.6209 0.7405 0.2572
vn 0.6592 0.7405 0.1311
vn 0.6721 0.7405 -0.0000
vn 0.6592 0.7405 -0.1311
vn 0.6209 0.7405 -0.2572
vn 0.5588 0.7405 -0.3734
vn 0.4753 0.7405 -0.4753
vn 0.3734 0.7405 -0.5588
vn 0.2572 0.7405 -0.6209
vn 0.1311 0.7405 -0.6592
vn -0.0000 0.7405 -0.6721
vn -0.1311 0.7405 -0.6592
vn -0.2572 0.7405 -0.6209
vn -0.3734 0.7405 -0.5588
vn -0.4753 0.7405 -0.4753
vn -0.5588 0.7405 -0.3734
vn -0.6209 0.7405 -0.2572
vn -0.6592 0.7405 -0.1311
vn -0.6721 0.7405 -0.0000
vn -0.6592 0.7405 0.1311
vn -0.6209 0.7405 0.2572
vn -0.5588 0.7405 0.3734
vn -0.4753 0.7405 0.4753
vn -0.3734 0.7405 0.5588
vn -0.2572 0.7405 0.6209
vt 1.000000 0.000000
vt 0.968750 0.000000
vt 0.968750 1.000000
vt 1.000000 1.000000
vt 0.031250 0.000000
vt 0.000000 0.000000
vt 0.000000 1.000000
vt 0.031250 1.000000
vt 0.062500 0.000000
vt 0.062500 1.000000
vt 0.093750 0.000000
vt 0.093750 1.000000
vt 0.125000 0.000000
vt 0.125000 1.000000
vt 0.156250 0.000000
vt 0.156250 1.000000
vt 0.187500 0.000000
vt 0.187500 1.000000
vt 0.218750 0.000000
vt 0.218750 1.000000
vt 0.250000 0.000000
vt 0.250000 1.000000
vt 0.281250 0.000000
vt 0.281250 1.000000
vt 0.312500 0.000000
vt 0.312500 1.000000
vt 0.343750 0.000000
vt 0.343750 1.000000
vt 0.375000 0.000000
vt 0.375000 1.000000
vt 0.406250 0.000000
vt 0.406250 1.000000
vt 0.437500 0.000000
vt 0.437500 1.000000
vt 0.468750 0.000000
vt 0.468750 1.000000
vt 0.500000 0.000000
vt 0.500000 1.000000
vt 0.531250 0.000000
vt 0.531250 1.000000
vt 0.562500 0.000000
vt 0.562500 1.000000
vt 0.593750 0.000000
vt 0.593750 1.000000
vt 0.625000 0.000000
vt 0.625000 1.000000
vt 0.656250 0.000000
vt 0.656250 1.000000
vt 0.687500 0.000000
vt 0.687500 1.000000
vt 0.718750 0.000000
vt 0.718750 1.000000
vt 0.750000 0.000000
vt 0.750000 1.000000
vt 0.781250 0.000000
vt 0.781250 1.000000
vt 0.812500 0.000000
vt 0.812500 1.000000
vt 0.843750 0.000000
vt 0.843750 1.000000
vt 0.875000 0.000000
vt 0.875000 1.000000
vt 0.906250 0.000000
vt 0.906250 1.000000
vt 0.937500 0.000000
vt 0.937500 1.000000
s 1
f 1/1/1 2/2/2 64/3/2 3/4/1
f 4/5/3 1/6/1 3/7/1 6/8/3
f 5/9/4 4/5/3 6/8/3 7/10/4
f 10/11/5 5/9/4 7/10/4 8/12/5
f 11/13/6 10/11/5 8/12/5 9/14/6
f 12/15/7 11/13/6 9/14/6 14/16/7
f 13/17/8 12/15/7 14/16/7 15/18/8
f 18/19/9 13/17/8 15/18/8 16/20/9
f 19/21/10 18/19/9 16/20/9 17/22/10
f 20/23/11 19/21/10 17/22/10 22/24/11
f 21/25/12 20/23/11 22/24/11 23/26/12
f 26/27/13 21/25/12 23/26/12 24/28/13
f 27/29/14 26/27/13 24/28/13 25/30/14
f 28/31/15 27/29/14 25/30/14 30/32/15
f 29/33/16 28/31/15 30/32/15 31/34/16
f 34/35/17 29/33/16 31/34/16 32/36/17
f 35/37/18 34/35/17 32/36/17 33/38/18
f 36/39/19 35/37/18 33/38/18 38/40/19
f 37/41/20 36/39/19 38/40/19 39/42/20
f 42/43/21 37/41/20 39/42/20 40/44/21
f 43/45/22 42/43/21 40/44/21 41/46/22
f 44/47/23 43/45/22 41/46/22 46/48/23
f 45/49/24 44/47/23 46/48/23 47/50/24
f 50/51/25 45/49/24 47/50/24 48/52/25
f 51/53/26 50/51/25 48/52/25 49/54/26
f 52/55/27 51/53/26 49/54/26 54/56/27
f 53/57/28 52/55/27 54/56/27 55/58/28
f 58/59/29 53/57/28 55/58/28 56/60/29
f 59/61/30 58/59/29 56/60/29 57/62/30
f 60/63/31 59/61/30 57/62/30 62/64/31
f 61/65/32 60/63/31 62/64/31 63/66/32
f 2/2/2 61/65/32 63/66/32 64/3/2
